# xmcd
#
# Track frame offsets: 
#        150
#        16650
#        36450
#        76275
#        94500
#        133200
#        165525
#        184500
#        197400
#        209497
#        214597
#        217447
#        241507
#
# Disc length: 3478 seconds
#
# Revision: 0
# Processed by: cddbd v1.5.2PL0 Copyright (c) Steve Scherf et al.
# Submitted via: ExactAudioCopy v0.99pb4
#
DISCID=ae0d940d
DTITLE=Roy Buchanan - Aragon Ballroom [Bootleg]
DYEAR=1985
DGENRE=Blues and Rock
TTITLE0=Short Fuse
TTITLE1=Green Onions
TTITLE2=When a Guitar Plays Blues
TTITLE3=Peter Gunn
TTITLE4=Drownin' - Goin' Down
TTITLE5=Jack the Ripper
TTITLE6=Hey Joe
TTITLE7=Foxy Lady
TTITLE8=The Messiah Will Come Again #
TTITLE9=The Messiah Will Come Again (cont)
TTITLE10=Outro
TTITLE11=Shuffle
TTITLE12=[unknown]
EXTD=
EXTT0=
EXTT1=
EXTT2=
EXTT3=
EXTT4=
EXTT5=
EXTT6=
EXTT7=
EXTT8=
EXTT9=
EXTT10=
EXTT11=
EXTT12=
PLAYORDER=
